<svg width="369" height="69" viewBox="0 0 369 69" fill="none" xmlns="http://www.w3.org/2000/svg">
<g clip-path="url(#clip0)">
<path d="M332.093 45.1116C332.093 44.8824 332.002 44.6627 331.84 44.5004L324.505 37.1653C324.168 36.8279 323.62 36.8279 323.283 37.1653L320.838 39.6103C320.676 39.7724 320.585 39.9922 320.585 40.2215C320.585 40.4508 320.676 40.6705 320.838 40.8327L328.173 48.1679C328.335 48.3299 328.555 48.421 328.784 48.421C329.013 48.421 329.233 48.3299 329.395 48.1679L331.84 45.7228C332.002 45.5606 332.093 45.3408 332.093 45.1116V45.1116ZM328.784 46.3345L322.671 40.2214L323.894 38.9987L330.007 45.1116L328.784 46.3345Z" fill="#56C5CC"/>
<path d="M331.841 48.1682C330.83 49.1792 330.83 50.8244 331.841 51.8354C332.346 52.341 333.01 52.5937 333.674 52.5937C334.339 52.5937 335.003 52.341 335.508 51.8354C336.519 50.8244 336.519 49.1792 335.508 48.1681C334.497 47.1571 332.852 47.157 331.841 48.1682V48.1682ZM334.286 50.6131C334.123 50.7765 333.905 50.8664 333.674 50.8664C333.443 50.8664 333.226 50.7765 333.063 50.6132C332.726 50.2761 332.726 49.7274 333.063 49.3905C333.232 49.2219 333.453 49.1377 333.674 49.1377C333.896 49.1377 334.117 49.2219 334.286 49.3905C334.623 49.7276 334.623 50.2761 334.286 50.6131Z" fill="#56C5CC"/>
<path d="M330.007 30.7996C329.778 30.7996 329.558 30.8906 329.396 31.0526L326.951 33.4977C326.788 33.6599 326.697 33.8796 326.697 34.1089C326.697 34.3382 326.788 34.5579 326.951 34.7201L334.286 42.0552C334.455 42.2239 334.676 42.3083 334.897 42.3083C335.118 42.3083 335.339 42.2239 335.508 42.0552L337.953 39.6102C338.115 39.4481 338.206 39.2283 338.206 38.999C338.206 38.7697 338.115 38.5501 337.953 38.3878L330.618 31.0526C330.456 30.8906 330.236 30.7996 330.007 30.7996V30.7996ZM334.897 40.2218L328.784 34.1088L330.007 32.886L336.12 38.999L334.897 40.2218Z" fill="#56C5CC"/>
<path d="M368.747 6.37125C368.441 6.06588 368.208 5.68758 368.071 5.27781L367.669 4.07041C367.241 2.78672 366.219 1.76484 364.935 1.33686L363.728 0.934473C363.318 0.797922 362.94 0.564231 362.634 0.258635C362.297 -0.0787653 361.749 -0.0787653 361.412 0.258635L354.062 7.60815C353.9 7.77029 353.809 7.99003 353.809 8.21935C353.809 9.33353 353.453 10.4271 352.805 11.3073L338.588 24.5536C338.052 25.0494 337.193 25.0304 336.673 24.5097C336.302 24.1394 336.175 23.6007 336.341 23.104L336.747 21.8851C337.085 20.8715 336.826 19.7725 336.07 19.0168C335.491 18.438 334.691 18.1411 333.874 18.2041C333.058 18.2667 332.312 18.6813 331.828 19.3416L327.483 25.268C326.996 25.9317 326.215 26.328 325.392 26.3281L323.401 26.3283H323.384C319.796 26.3283 316.432 27.7162 313.911 30.2374C311.06 33.0882 309.692 37.0686 310.059 41.445C310.421 45.767 312.439 49.965 315.74 53.266C319.523 57.0494 324.366 58.9943 328.929 58.9941C332.631 58.9939 336.15 57.7133 338.768 55.0952C341.293 52.57 342.682 49.1994 342.677 45.6054L342.677 43.614C342.677 42.791 343.074 42.0092 343.738 41.5226L349.664 37.1778C350.324 36.6936 350.739 35.9477 350.801 35.1313C350.864 34.3149 350.568 33.5146 349.989 32.9356C349.233 32.1801 348.135 31.9209 347.121 32.2584L345.902 32.6647C345.405 32.8304 344.866 32.7032 344.496 32.333C343.975 31.8118 343.955 30.9527 344.452 30.4178L353.04 21.2002C353.365 20.851 353.346 20.3041 352.997 19.9787C352.647 19.6533 352.101 19.6725 351.775 20.0219L338.609 34.1534L334.852 30.3964L350.898 15.4464L354.149 18.6971C354.315 18.8628 354.541 18.958 354.775 18.95C355.01 18.9459 355.233 18.8466 355.392 18.675L357.698 16.2001C358.579 15.552 359.672 15.196 360.786 15.196C361.015 15.196 361.235 15.1049 361.397 14.9429L368.747 7.5934C369.084 7.25589 369.084 6.70877 368.747 6.37125V6.37125ZM332.997 30.9857L338.02 36.0089C338.182 36.171 338.402 36.2619 338.631 36.2619C338.636 36.2619 338.641 36.2619 338.646 36.2618C338.881 36.2577 339.103 36.1585 339.263 35.9868L342.558 32.451C342.71 32.8529 342.949 33.2304 343.274 33.5553C344.11 34.3914 345.326 34.6782 346.448 34.3046L347.667 33.8983C348.055 33.7688 348.477 33.8681 348.766 34.1579C348.991 34.3831 349.102 34.6819 349.078 34.9995C349.053 35.3169 348.899 35.5956 348.642 35.7838L342.715 40.1287C341.609 40.9397 340.949 42.2426 340.949 43.614L340.949 45.6065C340.952 48.7392 339.744 51.6748 337.546 53.873C332.375 59.0438 323.141 58.2234 316.962 52.0437C313.949 49.0313 312.109 45.216 311.781 41.3006C311.457 37.4397 312.647 33.9449 315.132 31.4598C317.327 29.265 320.257 28.0571 323.385 28.0571H323.4L325.391 28.0568C326.763 28.0567 328.066 27.3963 328.877 26.2902L333.222 20.3637C333.41 20.1068 333.688 19.9521 334.006 19.9278C334.323 19.904 334.622 20.0142 334.847 20.2392C335.137 20.5289 335.236 20.9501 335.107 21.3385L334.701 22.5575C334.327 23.6793 334.614 24.8958 335.45 25.7321C335.775 26.057 336.152 26.2953 336.554 26.448L333.018 29.7423C332.847 29.9022 332.748 30.1249 332.743 30.3593C332.74 30.5938 332.831 30.8199 332.997 30.9857V30.9857ZM354.738 16.8417L352.164 14.2674L353.43 13.0878L355.918 15.5757L354.738 16.8417ZM360.419 13.4774C359.29 13.5373 358.188 13.8715 357.228 14.4413L354.564 11.7776C355.134 10.8175 355.468 9.71564 355.528 8.58705L362.082 2.03264C362.422 2.2616 362.793 2.44482 363.181 2.57423L364.388 2.97662C365.159 3.23347 365.772 3.84662 366.029 4.61695L366.431 5.82436C366.561 6.21258 366.744 6.58328 366.973 6.92298L360.419 13.4774Z" fill="#56C5CC"/>
</g>
<path d="M34.2188 59H27.5156V35C27.5156 34.5312 27.4219 34.0938 27.2344 33.6875C27.0625 33.2812 26.8203 32.9297 26.5078 32.6328C26.2109 32.3203 25.8594 32.0781 25.4531 31.9062C25.0469 31.7344 24.6094 31.6484 24.1406 31.6484C23.6719 31.6484 23.2344 31.7344 22.8281 31.9062C22.4219 32.0781 22.0625 32.3203 21.75 32.6328C21.4531 32.9297 21.2188 33.2812 21.0469 33.6875C20.875 34.0938 20.7891 34.5312 20.7891 35V59H14.0625V35C14.0625 34.5312 13.9766 34.0938 13.8047 33.6875C13.6328 33.2812 13.3906 32.9297 13.0781 32.6328C12.7812 32.3203 12.4297 32.0781 12.0234 31.9062C11.6172 31.7344 11.1797 31.6484 10.7109 31.6484C10.2422 31.6484 9.80469 31.7344 9.39844 31.9062C8.99219 32.0781 8.63281 32.3203 8.32031 32.6328C8.02344 32.9297 7.78906 33.2812 7.61719 33.6875C7.44531 34.0938 7.35938 34.5312 7.35938 35V59H0.632812V35C0.632812 33.6094 0.890625 32.3047 1.40625 31.0859C1.9375 29.8516 2.65625 28.7812 3.5625 27.875C4.48438 26.9531 5.55469 26.2344 6.77344 25.7188C8.00781 25.1875 9.32031 24.9219 10.7109 24.9219C11.9609 24.9219 13.1641 25.1484 14.3203 25.6016C15.4766 26.0391 16.5156 26.6797 17.4375 27.5234C18.3594 26.6797 19.3906 26.0391 20.5312 25.6016C21.6875 25.1484 22.8906 24.9219 24.1406 24.9219C25.5312 24.9219 26.8359 25.1875 28.0547 25.7188C29.2891 26.2344 30.3594 26.9531 31.2656 27.875C32.1875 28.7812 32.9062 29.8516 33.4219 31.0859C33.9531 32.3047 34.2188 33.6094 34.2188 35V59ZM45.3281 68.5625V62.1172L48.8906 62.1641C49.5156 62.1641 50.1172 62.0625 50.6953 61.8594C51.2734 61.6562 51.8047 61.375 52.2891 61.0156C52.7891 60.6562 53.2266 60.2266 53.6016 59.7266C53.9766 59.2422 54.2812 58.7109 54.5156 58.1328C53.8125 58.4297 53.0938 58.7266 52.3594 59.0234C51.6406 59.3203 50.9141 59.4688 50.1797 59.4688C48.6328 59.4688 47.1797 59.1953 45.8203 58.6484C44.4609 58.1016 43.2656 57.3281 42.2344 56.3281C41.2188 55.3125 40.4141 54.0859 39.8203 52.6484C39.2422 51.1953 38.9531 49.5703 38.9531 47.7734V33.8984H45.3281V47.7734C45.3281 48.6641 45.4531 49.4453 45.7031 50.1172C45.9688 50.7734 46.3203 51.3281 46.7578 51.7812C47.1953 52.2188 47.7031 52.5469 48.2812 52.7656C48.875 52.9844 49.5078 53.0938 50.1797 53.0938C50.8359 53.0938 51.4531 52.9453 52.0312 52.6484C52.625 52.3359 53.1406 51.9297 53.5781 51.4297C54.0156 50.9297 54.3594 50.3672 54.6094 49.7422C54.8594 49.1016 54.9844 48.4453 54.9844 47.7734V33.8984H61.4297V55.8359C61.4141 57.6016 61.0703 59.2578 60.3984 60.8047C59.7266 62.3516 58.8047 63.7031 57.6328 64.8594C56.4766 66.0156 55.125 66.9297 53.5781 67.6016C52.0312 68.2734 50.375 68.6094 48.6094 68.6094L45.3281 68.5625ZM93.8906 59H86.6953L73.7344 36.875V59H67.0078V25.3906H74.2031L87.1641 47.5391V25.3906H93.8906V59ZM109.078 52.8594C109.328 52.9375 109.578 52.9922 109.828 53.0234C110.078 53.0391 110.328 53.0469 110.578 53.0469C111.203 53.0469 111.805 52.9609 112.383 52.7891C112.961 52.6172 113.5 52.375 114 52.0625C114.516 51.7344 114.969 51.3438 115.359 50.8906C115.766 50.4219 116.094 49.9062 116.344 49.3438L121.031 54.0547C120.438 54.8984 119.75 55.6562 118.969 56.3281C118.203 57 117.367 57.5703 116.461 58.0391C115.57 58.5078 114.625 58.8594 113.625 59.0938C112.641 59.3438 111.625 59.4688 110.578 59.4688C108.812 59.4688 107.148 59.1406 105.586 58.4844C104.039 57.8281 102.68 56.9141 101.508 55.7422C100.352 54.5703 99.4375 53.1797 98.7656 51.5703C98.0938 49.9453 97.7578 48.1641 97.7578 46.2266C97.7578 44.2422 98.0938 42.4297 98.7656 40.7891C99.4375 39.1484 100.352 37.75 101.508 36.5938C102.68 35.4375 104.039 34.5391 105.586 33.8984C107.148 33.2578 108.812 32.9375 110.578 32.9375C111.625 32.9375 112.648 33.0625 113.648 33.3125C114.648 33.5625 115.594 33.9219 116.484 34.3906C117.391 34.8594 118.234 35.4375 119.016 36.125C119.797 36.7969 120.484 37.5547 121.078 38.3984L109.078 52.8594ZM112.359 39.6641C112.062 39.5547 111.766 39.4844 111.469 39.4531C111.188 39.4219 110.891 39.4062 110.578 39.4062C109.703 39.4062 108.875 39.5703 108.094 39.8984C107.328 40.2109 106.656 40.6641 106.078 41.2578C105.516 41.8516 105.07 42.5703 104.742 43.4141C104.414 44.2422 104.25 45.1797 104.25 46.2266C104.25 46.4609 104.258 46.7266 104.273 47.0234C104.305 47.3203 104.344 47.625 104.391 47.9375C104.453 48.2344 104.523 48.5234 104.602 48.8047C104.68 49.0859 104.781 49.3359 104.906 49.5547L112.359 39.6641ZM147.188 59H139.359L134.367 51.3125L129.328 59H121.5L130.664 46.1328L121.5 33.7578H129.328L134.367 40.9531L139.359 33.7578H147.188L138 46.1328L147.188 59ZM162.07 59C160.523 59 159.07 58.7109 157.711 58.1328C156.352 57.5391 155.156 56.7344 154.125 55.7188C153.109 54.6875 152.305 53.4922 151.711 52.1328C151.133 50.7734 150.844 49.3203 150.844 47.7734V40.3203H147.727V33.9453H150.844V23.9141H157.219V33.9453H166.922V40.3203H157.219V47.7734C157.219 48.4453 157.344 49.0781 157.594 49.6719C157.844 50.25 158.188 50.7578 158.625 51.1953C159.062 51.6328 159.578 51.9844 160.172 52.25C160.766 52.5 161.398 52.625 162.07 52.625H166.922V59H162.07ZM197.953 55.6016C196.391 56.9297 194.648 57.9531 192.727 58.6719C190.805 59.375 188.805 59.7266 186.727 59.7266C185.133 59.7266 183.594 59.5156 182.109 59.0938C180.641 58.6875 179.266 58.1094 177.984 57.3594C176.703 56.5938 175.531 55.6875 174.469 54.6406C173.406 53.5781 172.5 52.4062 171.75 51.125C171 49.8281 170.414 48.4375 169.992 46.9531C169.586 45.4688 169.383 43.9297 169.383 42.3359C169.383 40.7422 169.586 39.2109 169.992 37.7422C170.414 36.2734 171 34.8984 171.75 33.6172C172.5 32.3203 173.406 31.1484 174.469 30.1016C175.531 29.0391 176.703 28.1328 177.984 27.3828C179.266 26.6328 180.641 26.0547 182.109 25.6484C183.594 25.2266 185.133 25.0156 186.727 25.0156C188.805 25.0156 190.805 25.375 192.727 26.0938C194.648 26.7969 196.391 27.8125 197.953 29.1406L194.438 35C193.422 33.9688 192.25 33.1641 190.922 32.5859C189.594 31.9922 188.195 31.6953 186.727 31.6953C185.258 31.6953 183.875 31.9766 182.578 32.5391C181.297 33.1016 180.172 33.8672 179.203 34.8359C178.234 35.7891 177.469 36.9141 176.906 38.2109C176.344 39.4922 176.062 40.8672 176.062 42.3359C176.062 43.8203 176.344 45.2109 176.906 46.5078C177.469 47.8047 178.234 48.9375 179.203 49.9062C180.172 50.875 181.297 51.6406 182.578 52.2031C183.875 52.7656 185.258 53.0469 186.727 53.0469C187.57 53.0469 188.391 52.9453 189.188 52.7422C189.984 52.5391 190.742 52.2578 191.461 51.8984V42.3359H197.953V55.6016ZM220.664 56.0703C220.148 56.5391 219.594 56.9844 219 57.4062C218.422 57.8125 217.812 58.1719 217.172 58.4844C216.531 58.7812 215.867 59.0156 215.18 59.1875C214.508 59.375 213.82 59.4688 213.117 59.4688C211.57 59.4688 210.117 59.1953 208.758 58.6484C207.398 58.1016 206.203 57.3281 205.172 56.3281C204.156 55.3125 203.352 54.0859 202.758 52.6484C202.18 51.1953 201.891 49.5703 201.891 47.7734V33.8984H208.266V47.7734C208.266 48.6172 208.391 49.375 208.641 50.0469C208.906 50.7031 209.258 51.2578 209.695 51.7109C210.133 52.1641 210.641 52.5078 211.219 52.7422C211.812 52.9766 212.445 53.0938 213.117 53.0938C213.773 53.0938 214.391 52.9453 214.969 52.6484C215.562 52.3359 216.078 51.9297 216.516 51.4297C216.953 50.9297 217.297 50.3672 217.547 49.7422C217.797 49.1016 217.922 48.4453 217.922 47.7734V33.8984H224.32V59H222.773L220.664 56.0703ZM236.766 27.0781C236.766 27.6719 236.648 28.2266 236.414 28.7422C236.195 29.2578 235.891 29.7109 235.5 30.1016C235.109 30.4766 234.648 30.7812 234.117 31.0156C233.602 31.2344 233.047 31.3438 232.453 31.3438C231.859 31.3438 231.297 31.2344 230.766 31.0156C230.25 30.7812 229.797 30.4766 229.406 30.1016C229.031 29.7109 228.727 29.2578 228.492 28.7422C228.273 28.2266 228.164 27.6719 228.164 27.0781C228.164 26.5 228.273 25.9531 228.492 25.4375C228.727 24.9062 229.031 24.4531 229.406 24.0781C229.797 23.6875 230.25 23.3828 230.766 23.1641C231.297 22.9297 231.859 22.8125 232.453 22.8125C233.047 22.8125 233.602 22.9297 234.117 23.1641C234.648 23.3828 235.109 23.6875 235.5 24.0781C235.891 24.4531 236.195 24.9062 236.414 25.4375C236.648 25.9531 236.766 26.5 236.766 27.0781ZM235.664 59H229.219V33.8984H235.664V59ZM253.148 59C251.602 59 250.148 58.7109 248.789 58.1328C247.43 57.5391 246.234 56.7344 245.203 55.7188C244.188 54.6875 243.383 53.4922 242.789 52.1328C242.211 50.7734 241.922 49.3203 241.922 47.7734V40.3203H238.805V33.9453H241.922V23.9141H248.297V33.9453H258V40.3203H248.297V47.7734C248.297 48.4453 248.422 49.0781 248.672 49.6719C248.922 50.25 249.266 50.7578 249.703 51.1953C250.141 51.6328 250.656 51.9844 251.25 52.25C251.844 52.5 252.477 52.625 253.148 52.625H258V59H253.148ZM285.914 59H284.367L281.883 55.5547C281.273 56.1016 280.625 56.6172 279.938 57.1016C279.266 57.5703 278.555 57.9844 277.805 58.3438C277.055 58.6875 276.281 58.9609 275.484 59.1641C274.703 59.3672 273.906 59.4688 273.094 59.4688C271.328 59.4688 269.664 59.1719 268.102 58.5781C266.555 57.9844 265.195 57.125 264.023 56C262.867 54.8594 261.953 53.4688 261.281 51.8281C260.609 50.1875 260.273 48.3203 260.273 46.2266C260.273 44.2734 260.609 42.4844 261.281 40.8594C261.953 39.2188 262.867 37.8125 264.023 36.6406C265.195 35.4688 266.555 34.5625 268.102 33.9219C269.664 33.2656 271.328 32.9375 273.094 32.9375C273.906 32.9375 274.711 33.0391 275.508 33.2422C276.305 33.4453 277.078 33.7266 277.828 34.0859C278.578 34.4453 279.289 34.8672 279.961 35.3516C280.648 35.8359 281.289 36.3594 281.883 36.9219L284.367 33.9453H285.914V59ZM279.469 46.2266C279.469 45.3516 279.297 44.5078 278.953 43.6953C278.625 42.8672 278.172 42.1406 277.594 41.5156C277.016 40.875 276.336 40.3672 275.555 39.9922C274.789 39.6016 273.969 39.4062 273.094 39.4062C272.219 39.4062 271.391 39.5547 270.609 39.8516C269.844 40.1484 269.172 40.5859 268.594 41.1641C268.031 41.7422 267.586 42.4609 267.258 43.3203C266.93 44.1641 266.766 45.1328 266.766 46.2266C266.766 47.3203 266.93 48.2969 267.258 49.1562C267.586 50 268.031 50.7109 268.594 51.2891C269.172 51.8672 269.844 52.3047 270.609 52.6016C271.391 52.8984 272.219 53.0469 273.094 53.0469C273.969 53.0469 274.789 52.8594 275.555 52.4844C276.336 52.0938 277.016 51.5859 277.594 50.9609C278.172 50.3203 278.625 49.5938 278.953 48.7812C279.297 47.9531 279.469 47.1016 279.469 46.2266ZM297.211 59H290.812V33.8984H292.359L294.469 36.875C295.5 35.9375 296.672 35.2188 297.984 34.7188C299.297 34.2031 300.656 33.9453 302.062 33.9453H307.711V40.3203H302.062C301.391 40.3203 300.758 40.4453 300.164 40.6953C299.57 40.9453 299.055 41.2891 298.617 41.7266C298.18 42.1641 297.836 42.6797 297.586 43.2734C297.336 43.8672 297.211 44.5 297.211 45.1719V59Z" fill="#56C5CC"/>
<defs>
<clipPath id="clip0">
<rect width="59" height="59" fill="white" transform="translate(310)"/>
</clipPath>
</defs>
</svg>
